<?xml version="1.0" standalone="no"?>
<!DOCTYPE svg PUBLIC "-//W3C//DTD SVG 20010904//EN"
 "http://www.w3.org/TR/2001/REC-SVG-20010904/DTD/svg10.dtd">
<svg version="1.0" xmlns="http://www.w3.org/2000/svg"
 width="2000.000000pt" height="2000.000000pt" viewBox="0 0 2000.000000 2000.000000"
 preserveAspectRatio="xMidYMid meet">
<metadata>
Created by potrace 1.11, written by Peter Selinger 2001-2013
</metadata>
<g transform="translate(0.000000,2000.000000) scale(0.100000,-0.100000)"
fill="#000000" stroke="none">
<path d="M11336 19960 c-36 -11 -46 -25 -46 -66 0 -41 39 -113 134 -249 177
-252 297 -491 404 -810 40 -119 94 -335 106 -420 3 -22 10 -63 15 -92 18 -94
25 -205 26 -418 0 -244 -12 -390 -48 -560 -6 -26 -19 -103 -19 -112 0 -5 -4
-18 -9 -31 -5 -12 -11 -34 -13 -47 -8 -43 -86 -285 -126 -390 -106 -280 -278
-603 -478 -900 -123 -181 -371 -507 -485 -635 -12 -14 -49 -56 -82 -94 -33
-38 -69 -79 -80 -91 -11 -11 -58 -64 -105 -115 -118 -131 -590 -604 -795 -795
-93 -88 -192 -181 -220 -207 -27 -25 -61 -56 -74 -67 -13 -11 -67 -61 -121
-111 -54 -50 -106 -98 -117 -108 -18 -15 -164 -149 -258 -237 -340 -315 -563
-538 -790 -790 -44 -49 -90 -99 -102 -112 -11 -13 -36 -42 -55 -65 -18 -23
-40 -49 -49 -57 -14 -15 -95 -111 -129 -154 -8 -11 -20 -24 -25 -31 -6 -6 -35
-42 -65 -81 -30 -38 -59 -75 -65 -82 -109 -131 -408 -549 -570 -798 -54 -82
-137 -215 -184 -294 -147 -248 -224 -308 -320 -250 -44 27 -52 35 -84 89 -34
58 -68 169 -107 350 -17 80 -47 188 -67 240 -74 197 -219 473 -325 621 -149
207 -389 427 -632 579 -194 122 -447 226 -634 260 -31 5 -66 12 -77 14 -137
27 -367 27 -494 0 -14 -3 -39 -7 -56 -10 -81 -13 -244 -59 -292 -81 -102 -48
-138 -129 -95 -210 35 -65 82 -85 275 -119 58 -11 205 -70 325 -131 239 -123
456 -323 587 -544 114 -192 212 -482 241 -714 3 -27 8 -59 10 -70 18 -91 25
-493 11 -685 -7 -93 -19 -215 -31 -305 -21 -153 -29 -199 -70 -430 -16 -84
-46 -226 -50 -233 -2 -4 -7 -23 -10 -42 -9 -53 -14 -79 -32 -149 -9 -36 -17
-72 -19 -80 -6 -31 -23 -98 -65 -256 -23 -88 -43 -168 -45 -179 -2 -10 -13
-48 -24 -85 -23 -76 -259 -901 -271 -946 -4 -16 -31 -113 -59 -215 -64 -232
-91 -329 -96 -355 -3 -11 -16 -65 -30 -120 -23 -93 -85 -363 -105 -465 -5 -25
-12 -56 -15 -70 -2 -13 -7 -42 -11 -64 -3 -22 -7 -43 -9 -46 -1 -3 -6 -25 -9
-50 -3 -25 -8 -56 -11 -70 -3 -14 -8 -41 -10 -60 -3 -19 -10 -64 -15 -100 -14
-98 -18 -129 -25 -198 -4 -35 -8 -71 -10 -80 -26 -138 -26 -1015 1 -1062 1 -3
5 -33 9 -65 3 -33 10 -82 15 -110 5 -27 12 -68 15 -90 6 -46 7 -53 30 -155 9
-41 18 -86 21 -100 11 -51 67 -248 99 -345 97 -293 246 -629 397 -889 54 -94
205 -332 238 -376 15 -19 65 -87 112 -151 145 -196 284 -356 488 -560 205
-206 301 -294 465 -424 55 -44 102 -82 105 -86 3 -3 68 -51 145 -106 284 -202
528 -350 825 -498 131 -66 401 -188 440 -200 3 -1 21 -8 40 -17 19 -8 53 -21
75 -28 22 -7 45 -16 50 -20 17 -12 375 -127 502 -160 197 -53 356 -90 453
-106 26 -4 91 -16 100 -19 3 0 30 -5 60 -9 30 -4 62 -9 71 -11 8 -1 41 -6 71
-9 31 -4 65 -9 77 -11 12 -2 54 -7 94 -10 39 -3 86 -7 102 -9 177 -23 707 -23
905 -1 19 2 64 7 100 10 188 19 444 63 762 130 53 11 288 68 313 76 17 5 91
27 165 48 226 65 541 172 665 226 17 7 84 37 150 65 128 56 432 210 477 241
14 11 29 19 34 19 4 0 28 13 53 29 25 15 102 62 169 102 225 134 406 252 592
386 312 224 546 420 786 658 251 249 503 565 659 827 192 321 327 607 437 928
33 97 100 320 114 382 2 10 6 26 8 35 31 123 80 400 91 508 3 33 8 74 10 90
23 149 23 706 0 824 -2 10 -7 52 -10 92 -4 40 -8 80 -10 89 -2 9 -6 41 -10 71
-7 58 -12 89 -20 129 -3 14 -7 39 -10 55 -2 17 -11 66 -19 110 -9 44 -18 91
-21 105 -13 67 -19 95 -50 221 -19 74 -36 147 -39 161 -6 33 -89 333 -128 463
-16 55 -34 114 -38 130 -13 49 -78 263 -111 361 -16 50 -31 99 -33 110 -2 10
-12 41 -21 68 -9 26 -18 56 -20 65 -2 9 -14 48 -25 86 -78 252 -206 764 -235
940 -4 22 -9 51 -11 65 -2 14 -7 36 -10 50 -3 14 -8 43 -10 65 -3 22 -7 47 -9
55 -3 8 -7 38 -10 65 -3 28 -8 61 -10 75 -3 14 -8 59 -11 100 -3 41 -8 78 -10
81 -6 11 -18 267 -17 404 0 176 12 363 28 445 3 14 7 45 10 69 13 103 69 312
119 441 87 223 196 391 365 561 196 197 416 328 711 424 127 41 168 67 197
122 66 127 -78 175 -442 149 -54 -4 -101 -9 -105 -10 -3 -2 -34 -7 -70 -10
-282 -29 -598 -120 -855 -248 -335 -167 -636 -445 -795 -733 -68 -124 -77
-141 -100 -200 -12 -33 -29 -73 -36 -90 -6 -16 -35 -94 -63 -171 -57 -161 -86
-235 -106 -281 -8 -17 -15 -34 -15 -38 0 -16 -115 -234 -156 -297 -128 -192
-285 -298 -442 -298 -142 0 -291 80 -365 195 -31 48 -72 169 -84 245 -10 68
-10 292 0 382 7 70 65 366 73 379 3 5 14 43 25 85 23 89 114 364 135 411 8 17
14 34 14 37 0 3 42 119 94 258 229 618 417 1276 551 1928 18 91 37 185 40 210
4 24 8 47 10 50 1 3 6 28 9 55 4 28 9 57 11 65 2 8 6 29 9 45 3 17 7 44 10 60
9 53 46 331 51 381 19 183 24 235 30 304 38 438 38 1004 0 1395 -14 141 -30
274 -40 335 -2 14 -7 45 -10 70 -3 25 -15 95 -26 155 -12 61 -23 121 -25 135
-3 14 -7 33 -10 42 -3 10 -7 30 -10 45 -29 168 -179 668 -245 818 -4 11 -29
70 -55 130 -75 178 -229 485 -246 493 -5 2 -8 8 -8 13 0 37 -320 499 -425 615
-5 6 -32 37 -60 69 -252 295 -589 606 -788 727 -181 111 -340 162 -421 138z"/>
</g>
</svg>
